<svg width="383" height="356" viewBox="0 0 383 356" fill="none" xmlns="http://www.w3.org/2000/svg">
<path d="M0 178C0 94.09 0 52.135 28.0445 26.0675C56.0891 0 101.226 0 191.5 0V0C281.774 0 326.911 0 354.955 26.0675C383 52.135 383 94.09 383 178V178C383 261.91 383 303.865 354.955 329.933C326.911 356 281.774 356 191.5 356V356C101.226 356 56.0891 356 28.0445 329.933C0 303.865 0 261.91 0 178V178Z" fill="#5629EE"/>
<path d="M132.176 126.083C144.659 126.083 155.567 128.427 164.902 133.115C174.348 137.698 181.602 144.156 186.663 152.49C191.723 160.823 194.254 170.354 194.254 181.083C194.254 191.708 191.667 201.188 186.494 209.521C181.433 217.854 174.18 224.417 164.733 229.208C155.399 233.896 144.546 236.24 132.176 236.24H85.1111V126.083H132.176ZM129.645 209.208C139.317 209.208 146.908 206.76 152.419 201.865C157.929 196.969 160.684 190.042 160.684 181.083C160.684 172.021 157.929 165.042 152.419 160.146C146.908 155.146 139.317 152.646 129.645 152.646H118.174V209.208H129.645Z" fill="white"/>
<path d="M203.76 192.333C203.76 183.271 205.784 175.354 209.833 168.583C213.881 161.813 219.504 156.604 226.702 152.958C234.011 149.313 242.334 147.49 251.668 147.49C263.701 147.49 273.822 150.563 282.032 156.708C290.242 162.75 295.527 171.24 297.889 182.177H262.801C260.777 176.448 256.841 173.583 250.993 173.583C246.832 173.583 243.514 175.198 241.04 178.427C238.679 181.552 237.498 186.188 237.498 192.333C237.498 198.479 238.679 203.167 241.04 206.396C243.514 209.625 246.832 211.24 250.993 211.24C256.953 211.24 260.889 208.375 262.801 202.646H297.889C295.527 213.479 290.242 221.969 282.032 228.115C273.822 234.26 263.701 237.333 251.668 237.333C242.334 237.333 234.011 235.51 226.702 231.865C219.504 228.219 213.881 223.01 209.833 216.24C205.784 209.469 203.76 201.5 203.76 192.333Z" fill="white"/>
</svg>
